<svg fill="#000000" xmlns="http://www.w3.org/2000/svg"  viewBox="0 0 512 512" width="64px" height="64px"><path d="M 255.92188 8 A 6 6 0 0 0 251.75 9.765625 L 222.88672 38.726562 A 6.0001634 6.0001634 0 0 0 231.38672 47.197266 L 250 28.519531 L 250 81.447266 A 6 6 0 0 0 262 81.447266 L 262 28.519531 L 280.61328 47.199219 A 6.0001634 6.0001634 0 0 0 289.11328 38.728516 L 260.25 9.765625 A 6 6 0 0 0 255.92188 8 z M 84.880859 79 A 5.9 5.9 0 0 0 78.880859 84.921875 L 78.949219 125.91016 A 6.087 6.087 0 0 0 84.949219 132 L 84.958984 132 A 6.1 6.1 0 0 0 90.949219 125.875 L 90.900391 99.447266 L 128.32617 136.84766 A 6.0082934 6.0082934 0 0 0 136.81055 128.33789 L 99.390625 90.931641 L 125.75977 91 L 125.76953 91 A 6.023 6.023 0 0 0 131.76953 84.984375 A 5.96 5.96 0 0 0 125.7793 79.021484 L 84.890625 79 L 84.880859 79 z M 427.11328 79 L 386.22461 79.009766 A 6 6 0 1 0 386.23047 91 L 386.24023 91 L 412.60938 90.929688 L 375.18555 128.34375 A 5.991 5.991 0 0 0 379.42773 138.57227 A 5.979 5.979 0 0 0 383.66992 136.81445 L 421.09961 99.388672 L 421.05469 125.875 A 6.1 6.1 0 0 0 427.04492 132 L 427.05469 132 A 6.1 6.1 0 0 0 433.05469 125.89453 L 433.12305 84.947266 A 5.948 5.948 0 0 0 427.12305 79 L 427.11328 79 z M 256 105.43945 C 172.981 105.43945 105.43945 172.981 105.43945 256 C 105.43945 339.019 172.981 406.56055 256 406.56055 C 339.019 406.56055 406.56055 339.019 406.56055 256 C 406.56055 172.981 339.019 105.43945 256 105.43945 z M 256 117.43945 C 332.4 117.43945 394.56055 179.598 394.56055 256 C 394.56055 332.402 332.4 394.56055 256 394.56055 C 179.6 394.56055 117.43945 332.4 117.43945 256 C 117.43945 179.6 179.6 117.43945 256 117.43945 z M 235.39062 163 C 223.27262 163 213 172.79111 213 184.91211 L 213 188 L 183.50781 188 C 170.84581 188 161 198.35948 161 211.02148 L 161 254.82227 C 161 261.18527 164 266.82091 170 269.62891 L 170 330.34766 A 18.336 18.336 0 0 0 188.31055 349 L 323.6875 349 A 18.338 18.338 0 0 0 342 330.34766 L 342 269.77734 C 348 267.58434 351 262.26223 351 256.36523 L 351 211.02148 C 351 198.35948 341.15419 188 328.49219 188 L 299 188 L 299 184.91211 C 299 172.79111 288.72461 163 276.59961 163 L 235.39062 163 z M 235.39453 175 L 276.59961 175 C 282.09961 175 287 179.40811 287 184.91211 L 287 188 L 225 188 L 225 184.91211 C 225 179.41211 229.89053 175 235.39453 175 z M 183.50781 200 L 328.49219 200 C 334.53719 200 339 204.97648 339 211.02148 L 339 256.36523 A 2.425 2.425 0 0 1 337.30078 258.74609 L 280 275.64648 L 280 270.9668 A 5.725 5.725 0 0 0 274.29297 265 L 237.70508 265 A 5.724 5.724 0 0 0 232 270.96289 L 232 276.26953 L 176.2168 259.26953 A 4.558 4.558 0 0 1 173 254.81641 L 173 211.02148 C 173 204.97648 177.46281 200 183.50781 200 z M 468.92383 221.17188 A 6 6 0 0 0 464.80078 231.38672 L 483.47852 250 L 430.55273 250 A 6 6 0 0 0 430.55273 262 L 483.47852 262 L 464.80078 280.61328 A 6 6 0 1 0 473.26953 289.11328 L 502.23242 260.25 A 6 6 0 0 0 502.23242 251.75 L 473.26953 222.88672 A 6 6 0 0 0 468.92383 221.17188 z M 42.630859 221.17773 A 6 6 0 0 0 38.730469 222.88672 L 9.765625 251.75 A 6 6 0 0 0 9.765625 260.25 L 38.726562 289.11328 A 6 6 0 1 0 47.197266 280.61328 L 28.521484 262 L 81.447266 262 A 6 6 0 0 0 81.447266 250 L 28.521484 250 L 47.199219 231.38672 A 6 6 0 0 0 42.630859 221.17773 z M 330 273.40039 L 330 330.35156 A 6.332 6.332 0 0 1 323.6875 337 L 188.31055 337 A 6.331 6.331 0 0 1 182 330.34766 L 182 273.5625 L 232 288.81445 L 232 291.03516 A 24 24 0 0 0 280 291.03516 L 280 288.15234 L 330 273.40039 z M 244 277 L 268 277 L 268 291.03516 A 12 12 0 0 1 244 291.03516 L 244 277 z M 379.33203 373.40039 A 6.0072312 6.0072312 0 0 0 375.18555 383.66016 L 412.60938 421.06055 L 386.24023 421 L 386.23047 421 A 6.023 6.023 0 0 0 380.23047 427.01562 A 5.96 5.96 0 0 0 386.2207 432.97852 L 427.10938 433 L 427.11914 433 A 5.9 5.9 0 0 0 433.11914 427.07812 L 433.05078 386.08984 A 6.087 6.087 0 0 0 427.05078 380 L 427.04102 380 A 6.1 6.1 0 0 0 421.05078 386.125 L 421.0957 412.55273 L 383.66992 375.15234 A 6.0072312 6.0072312 0 0 0 379.33203 373.40039 z M 132.48438 373.42969 A 6 6 0 0 0 128.33008 375.18555 L 90.900391 412.61133 L 90.945312 386.125 A 6.1 6.1 0 0 0 84.958984 380 L 84.949219 380 A 6.1 6.1 0 0 0 78.949219 386.10547 L 78.880859 427.05273 A 5.948 5.948 0 0 0 84.880859 433 L 84.890625 433 L 125.7793 432.99023 A 6 6 0 1 0 125.76953 421 L 125.75977 421 L 99.390625 421.07031 L 136.81445 383.65625 A 5.982 5.982 0 0 0 136.81445 375.18555 A 6 6 0 0 0 132.48438 373.42969 z M 256 424.55273 A 6 6 0 0 0 250 430.55273 L 250 483.48047 L 231.38672 464.80078 A 6.0001634 6.0001634 0 0 0 222.88672 473.27148 L 251.75 502.23242 A 6 6 0 0 0 260.25 502.23242 L 289.11328 473.27148 A 6.0001634 6.0001634 0 0 0 280.61328 464.80078 L 262 483.48047 L 262 430.55273 A 6 6 0 0 0 256 424.55273 z"/></svg>