<svg fill="#000000" xmlns="http://www.w3.org/2000/svg"  viewBox="0 0 64 64" width="64px" height="64px"><path d="M56.948 10.238c-.119-.355-.427-.614-.797-.671l-2.236-.342-1.01-2.15C52.74 6.724 52.388 6.5 52 6.5s-.74.224-.905.575l-1.01 2.15-2.236.342c-.37.057-.678.315-.797.671s-.029.747.232 1.016l1.647 1.688-.391 2.396c-.062.378.099.758.411.979.313.221.727.244 1.06.058L52 15.276l1.988 1.099c.15.084.317.125.483.125.202 0 .404-.062.576-.183.312-.221.473-.601.411-.979l-.391-2.396 1.647-1.688C56.978 10.985 57.067 10.594 56.948 10.238zM53.284 11.907c-.222.227-.322.546-.271.859l.141.862-.67-.37c-.15-.083-.316-.125-.483-.125s-.333.042-.483.125l-.67.37.141-.862c.051-.313-.05-.633-.271-.859l-.641-.657.84-.128c.329-.05.612-.262.754-.563L52 9.854l.331.705c.142.302.425.514.754.563l.84.128L53.284 11.907zM52.008 19.999l.002 2c.749-.001 1.497-.085 2.223-.251l-.443-1.949C53.208 19.931 52.608 19.998 52.008 19.999zM42.253 14.244c.169.729.419 1.44.743 2.111l1.801-.871c-.26-.537-.46-1.105-.595-1.689L42.253 14.244zM51.975 4l-.006-2c-.75.002-1.498.088-2.223.255l.449 1.949C50.774 4.07 51.373 4.002 51.975 4zM42 12v.019L44 12c0-.595.065-1.188.195-1.764l-1.951-.439C42.082 10.517 42 11.258 42 12zM58.207 4.16l-1.242 1.566c.468.371.896.796 1.271 1.263l1.559-1.254C59.325 5.153 58.791 4.623 58.207 4.16zM42.979 7.681l1.803.865c.259-.538.578-1.049.95-1.519l-1.566-1.242C43.701 6.37 43.302 7.008 42.979 7.681zM50.229 19.803c-.585-.132-1.153-.33-1.688-.588l-.869 1.801c.672.324 1.384.572 2.116.738L50.229 19.803zM45.774 19.825l1.248-1.562c-.469-.374-.896-.8-1.27-1.267l-1.561 1.25C44.659 18.829 45.191 19.36 45.774 19.825zM56.309 2.973c-.676-.323-1.389-.569-2.117-.731l-.436 1.951c.582.13 1.15.327 1.689.585L56.309 2.973zM48.509 4.801l-.875-1.799c-.67.326-1.306.729-1.89 1.196l1.252 1.561C47.463 5.384 47.972 5.062 48.509 4.801zM58.239 19.814l-1.248-1.562c-.469.374-.979.695-1.515.954l.869 1.801C57.017 20.684 57.653 20.282 58.239 19.814zM59.821 18.232c.466-.585.867-1.222 1.19-1.894l-1.801-.869c-.26.538-.58 1.048-.954 1.517L59.821 18.232zM60.995 7.625l-1.797.877c.262.538.463 1.104.597 1.685l1.949-.449C61.576 9.01 61.324 8.299 60.995 7.625zM59.801 13.781l1.951.443C61.916 13.499 62 12.751 62 12v-.038L60 12C60 12.602 59.934 13.201 59.801 13.781zM6 27c2.206 0 4-1.794 4-4s-1.794-4-4-4-4 1.794-4 4S3.794 27 6 27zM6 21c1.103 0 2 .897 2 2s-.897 2-2 2-2-.897-2-2S4.897 21 6 21zM6 62c1.859 0 3.411-1.279 3.858-3H41c2.757 0 5-2.243 5-5v-2h-2v2c0 1.654-1.346 3-3 3H9.858C9.411 55.279 7.859 54 6 54c-2.206 0-4 1.794-4 4S3.794 62 6 62zM6 56c1.103 0 2 .897 2 2s-.897 2-2 2-2-.897-2-2S4.897 56 6 56zM45 50c2.206 0 4-1.794 4-4s-1.794-4-4-4-4 1.794-4 4S42.794 50 45 50zM45 44c1.103 0 2 .897 2 2s-.897 2-2 2-2-.897-2-2S43.897 44 45 44zM5 29v2c0 2.757 2.243 5 5 5h31c1.654 0 3 1.346 3 3v1h2v-1c0-2.757-2.243-5-5-5H10c-1.654 0-3-1.346-3-3v-2H5zM7 15c0-1.654 1.346-3 3-3h20v3c0 .369.203.708.528.882C30.676 15.961 30.838 16 31 16c.194 0 .388-.057.555-.168l6-4C37.833 11.646 38 11.334 38 11s-.167-.646-.445-.832l-6-4c-.306-.204-.702-.224-1.026-.05C30.203 6.292 30 6.631 30 7v3H10c-2.757 0-5 2.243-5 5v2h2V15zM32 8.868L35.197 11 32 13.132V8.868z"/></svg>