<svg fill="#000000" xmlns="http://www.w3.org/2000/svg"  viewBox="0 0 48 48" width="48px" height="48px"><path d="M 12.970703 5 A 2.0002 2.0002 0 0 0 11.585938 5.5859375 L 6.5859375 10.585938 A 2.0002 2.0002 0 1 0 9.4140625 13.414062 L 11 11.828125 L 11 41 A 2.0002 2.0002 0 1 0 15 41 L 15 11.828125 L 16.585938 13.414062 A 2.0002 2.0002 0 1 0 19.414062 10.585938 L 14.414062 5.5859375 A 2.0002 2.0002 0 0 0 12.970703 5 z M 34.970703 5 A 2.0002 2.0002 0 0 0 33.585938 5.5859375 L 28.585938 10.585938 A 2.0002 2.0002 0 1 0 31.414062 13.414062 L 33 11.828125 L 33 22 C 33 23.127968 32.127968 24 31 24 L 19 24 A 2.0002 2.0002 0 1 0 19 28 L 31 28 C 34.290032 28 37 25.290032 37 22 L 37 11.828125 L 38.585938 13.414062 A 2.0002 2.0002 0 1 0 41.414062 10.585938 L 36.414062 5.5859375 A 2.0002 2.0002 0 0 0 34.970703 5 z"/></svg>